<mxfile host="app.diagrams.net" modified="2021-02-02T16:02:01.070Z" agent="5.0 (Windows NT 10.0; Win64; x64) AppleWebKit/537.36 (KHTML, like Gecko) Chrome/87.0.4280.88  Safari/537.36" etag="WxhdKpnSztcgDgJ5yZCc" version="14.2.9" type="github">
  <diagram id="w8f1zN3-3SZRUV25bHih" name="Page-1">
    <mxGraphModel dx="868" dy="427" grid="1" gridSize="10" guides="1" tooltips="1" connect="1" arrows="1" fold="1" page="1" pageScale="1" pageWidth="850" pageHeight="1100" math="0" shadow="0">
      <root>
        <mxCell id="0" />
        <mxCell id="1" parent="0" />
        <mxCell id="xZq2UpIjTJho7YRoF3BA-1" value="" style="rounded=0;whiteSpace=wrap;html=1;" vertex="1" parent="1">
          <mxGeometry x="110" y="120" width="120" height="60" as="geometry" />
        </mxCell>
      </root>
    </mxGraphModel>
  </diagram>
</mxfile>
